<svg width="64" height="64" viewBox="0 0 64 64" fill="none" xmlns="http://www.w3.org/2000/svg">
<path d="M11.2 6.4C8.54902 6.4 6.4 8.54902 6.4 11.2V19.2C6.4 20.9673 4.9673 22.4 3.2 22.4C1.4327 22.4 0 20.9673 0 19.2V11.2C0 5.0144 5.0144 0 11.2 0H19.2C20.9673 0 22.4 1.4327 22.4 3.2C22.4 4.9673 20.9673 6.4 19.2 6.4H11.2ZM11.2 57.6C8.54902 57.6 6.4 55.4509 6.4 52.8V44.8C6.4 43.0326 4.9673 41.6 3.2 41.6C1.4327 41.6 0 43.0326 0 44.8V52.8C0 58.9856 5.0144 64 11.2 64H19.2C20.9673 64 22.4 62.5674 22.4 60.8C22.4 59.0326 20.9673 57.6 19.2 57.6H11.2ZM57.6 11.2C57.6 8.54902 55.4509 6.4 52.8 6.4H44.8C43.0326 6.4 41.6 4.9673 41.6 3.2C41.6 1.4327 43.0326 0 44.8 0H52.8C58.9856 0 64 5.0144 64 11.2V19.2C64 20.9673 62.5674 22.4 60.8 22.4C59.0326 22.4 57.6 20.9673 57.6 19.2V11.2ZM18.4 12.8C16.6327 12.8 15.2 14.2327 15.2 16V20.8C15.2 22.5673 16.6327 24 18.4 24C20.1673 24 21.6 22.5673 21.6 20.8V19.2H28.8V44.8H24.8C23.0327 44.8 21.6 46.2326 21.6 48C21.6 49.7674 23.0327 51.2 24.8 51.2H28.8605C28.8205 50.672 28.8 50.1382 28.8 49.6C28.8 43.7011 31.2554 38.376 35.2 34.5907V19.2H42.4V20.8C42.4 22.5673 43.8326 24 45.6 24C47.3674 24 48.8 22.5673 48.8 20.8V16C48.8 14.2327 47.3674 12.8 45.6 12.8H18.4Z" fill="white"/>
<path d="M49.3037 63.5259C41.4488 63.5259 35.0815 57.1586 35.0815 49.3037C35.0815 41.4488 41.4488 35.0815 49.3037 35.0815C57.1586 35.0815 63.5259 41.4488 63.5259 49.3037C63.5259 57.1586 57.1586 63.5259 49.3037 63.5259ZM47.8815 50.4301V54.9926H50.7259V50.4301C51.4746 50.1034 52.0879 49.5288 52.4628 48.803C52.8376 48.0773 52.9511 47.2446 52.7843 46.4449C52.6174 45.6453 52.1802 44.9275 51.5464 44.4123C50.9125 43.8971 50.1206 43.6158 49.3037 43.6158C48.4868 43.6158 47.6949 43.8971 47.061 44.4123C46.4272 44.9275 45.99 45.6453 45.8231 46.4449C45.6563 47.2446 45.7698 48.0773 46.1446 48.803C46.5195 49.5288 47.1328 50.1034 47.8815 50.4301Z" fill="white"/>
</svg>
